<svg xmlns="http://www.w3.org/2000/svg" width="247.052" height="165.361" viewBox="0 0 247.052 165.361">
  <path id="Background1Onboarding" d="M245.427,96.7C229.588,96.15,214.5,91.037,200.1,85.443s-28.671-11.793-44.13-14.757c-9.943-1.906-21.315-2.176-29.325,3.154-7.711,5.139-10.2,13.986-11.541,22.2-1.008,6.182-1.6,12.686,1.162,18.474,1.916,4.018,5.32,7.4,7.672,11.257,8.191,13.391,2.4,29.9-6.473,42.98-4.16,6.135-8.993,11.991-12.2,18.515s-4.7,14.01-1.889,20.671c2.787,6.607,9.427,11.561,16.616,15.048,14.607,7.085,31.813,9.111,48.6,10.259,37.156,2.543,74.507,1.441,111.761.34,13.787-.409,27.634-.822,41.2-2.954,7.532-1.184,15.307-3.061,20.777-7.6,6.94-5.758,8.661-15.51,4.011-22.729-7.8-12.111-29.366-15.119-34.828-28.118-3-7.153.083-15.121,4.444-21.758,9.358-14.233,25.042-26.721,25.869-42.99.568-11.176-6.975-22.365-18.633-27.653-12.219-5.562-29.168-4.858-38.179,4.317C275.723,93.558,259.41,97.185,245.427,96.7Z" transform="translate(-101.886 -69.438)" fill="#ff6ea1" opacity="0.1"/>
</svg>
