<svg xmlns="http://www.w3.org/2000/svg" width="433.623" height="238.565" viewBox="0 0 433.623 238.565">
  <g id="Group_110" data-name="Group 110" transform="translate(24.811 -93.704)">
    <path id="Path_569" data-name="Path 569" d="M306.664,138.694s-17.6-3.936,4.795-26.964c0,0,9.655,9.151,6.113,20.526a9.351,9.351,0,0,1-10.648,6.493Z" transform="translate(-82.731 178.415)" fill="#ff6ea1"/>
    <path id="Path_570" data-name="Path 570" d="M307.071,138.694c-.386-.086-17.227-4.325,4.795-26.964,0,0,9.655,9.151,6.113,20.526a9.351,9.351,0,0,1-10.647,6.493Z" transform="translate(-83.139 178.415)" fill="#fff" opacity="0.4"/>
    <path id="Path_571" data-name="Path 571" d="M357,138.835s9.3-14.007,4.564-27.095" transform="translate(-132.834 178.406)" fill="none" stroke="#535461" stroke-miterlimit="10" stroke-width="1"/>
    <path id="Path_572" data-name="Path 572" d="M244.312,128.664s5.144-3.828-1.316-17.227c0,0-8.614-10.647,0-20.7,0,0-18.783.479-18.424,17.945s9.391,19.979,9.391,19.979Z" transform="translate(-16.245 196.894)" fill="#ff6ea1"/>
    <path id="Path_573" data-name="Path 573" d="M300.968,128.638s-1.3-9.212-4.765-14.835a12.06,12.06,0,0,1-1.458-3.678,15.057,15.057,0,0,1,4.24-14.083l5.473-5.332" transform="translate(-77.705 196.921)" fill="none" stroke="#535461" stroke-miterlimit="10" stroke-width="2"/>
    <path id="Path_574" data-name="Path 574" d="M455.236,150.69s1.182,1.546-.546,3.879-3.151,4.307-2.576,5.757c0,0,2.606-4.333,4.727-4.394S457.569,153.3,455.236,150.69Z" transform="translate(-216.456 144.116)" fill="#ff6ea1"/>
    <path id="Path_575" data-name="Path 575" d="M455.716,150.69a1.913,1.913,0,0,1,.239.485c2.07,2.431,3.172,4.7,1.183,4.758-1.853.053-4.076,3.367-4.608,4.2a1.8,1.8,0,0,0,.063.19s2.606-4.333,4.727-4.394S458.049,153.3,455.716,150.69Z" transform="translate(-216.935 144.116)" opacity="0.1"/>
    <path id="Path_578" data-name="Path 578" d="M407.484,150.69s-1.182,1.546.546,3.879,3.151,4.307,2.576,5.757c0,0-2.606-4.333-4.727-4.394S405.148,153.3,407.484,150.69Z" transform="translate(-174.943 144.116)" fill="#ff6ea1"/>
    <path id="Path_579" data-name="Path 579" d="M407.471,150.69a1.915,1.915,0,0,0-.239.485c-2.07,2.431-3.172,4.7-1.183,4.758,1.853.053,4.076,3.367,4.608,4.2a1.8,1.8,0,0,1-.063.19s-2.609-4.334-4.73-4.393S405.136,153.3,407.471,150.69Z" transform="translate(-174.93 144.116)" opacity="0.1"/>
    <path id="Path_580" data-name="Path 580" d="M408.62,164.589c0,.544.061.985.136.985s.136-.441.136-.985-.077-.288-.152-.288S408.62,164.046,408.62,164.589Z" transform="translate(-178.279 132.187)" fill="#ffd037"/>
    <path id="Path_581" data-name="Path 581" d="M400.183,169.839c.479.261.894.418.93.352s-.322-.33-.8-.591-.29-.071-.325,0S399.705,169.578,400.183,169.839Z" transform="translate(-170.595 127.586)" fill="#ffd037"/>
    <g id="undraw_Books_l33t" transform="translate(-24.811 93.704)">
      <path id="Path_463" data-name="Path 463" d="M261.267,229.958A5.737,5.737,0,1,1,267,224.221,5.737,5.737,0,0,1,261.267,229.958Zm0-10.518a4.781,4.781,0,1,0,4.781,4.781A4.781,4.781,0,0,0,261.267,219.44Z" transform="translate(-182.898 -196.104)" fill="#3f3d56"/>
      <path id="Path_464" data-name="Path 464" d="M865.878,588.349H856.44v-9.438h9.438Zm-8.712-.726h7.986v-7.986h-7.986Z" transform="translate(-532.294 -405.672)" fill="#3f3d56"/>
      <path id="Path_465" data-name="Path 465" d="M332.792,562.462l-6.437-6.9,6.9-6.437,6.437,6.9Zm-5.411-6.866,5.447,5.84,5.84-5.447-5.447-5.84Z" transform="translate(-224.079 -388.352)" fill="#3f3d56"/>
      <path id="Path_466" data-name="Path 466" d="M82,165.014V403.579H515.623V165.014ZM514.668,402.622H82.956V165.97h431.71Z" transform="translate(-82 -165.014)" fill="none"/>
      <path id="Path_467" data-name="Path 467" d="M578.742,633.133q-15.507-2.428-29.819-4.13l3.674-7.349c-1.275-.425-6.8,3.826-6.8,3.826l4.676-21.256c-6.377.85-9.353,22.531-9.353,22.531l-7.227-7.227,3.558,8.182a658.862,658.862,0,0,0-75.572-3.806l3.145-6.29c-1.275-.425-6.8,3.826-6.8,3.826l4.676-21.256c-6.377.85-9.353,22.531-9.353,22.531l-7.227-7.227,3.768,8.666a424.2,424.2,0,0,0-43.372,3.493c3.138-9.776,14.1-19.174,14.1-19.174-8.426,2.621-12.81,6.892-15.079,10.851a170.712,170.712,0,0,1,9.127-59.1s-17,38.261-14.454,63.768l.324,4.531c-14.794,2.308-22.217,4.609-22.217,4.609Z" transform="translate(-254.404 -394.808)" fill="#3f3d56"/>
      <path id="Path_468" data-name="Path 468" d="M397.757,85.873,353.51,139.559l65.485,77.284,43.656-51.326Z" transform="translate(-205.547 -49.93)" fill="#ff6ea1"/>
      <path id="Path_469" data-name="Path 469" d="M397.757,85.873,353.51,139.559l65.485,77.284,43.656-51.326Z" transform="translate(-205.547 -49.93)" opacity="0.1"/>
      <path id="Path_470" data-name="Path 470" d="M439.739,316.112h0a22.24,22.24,0,0,1,3.608-4.817l40.639-41.2s14.159-2.36,17.109,4.72l-51.916,42.477Z" transform="translate(-290.006 -225.894)" fill="#f2f2f2"/>
      <path id="Path_471" data-name="Path 471" d="M434.8,313.293l60.175,92.033s5.9,4.13,11.8,1.77L568.43,365.5l-65.485-99.112-59,46.016Z" transform="translate(-287.137 -223.96)" fill="#ff6ea1"/>
      <rect id="Rectangle_328" data-name="Rectangle 328" width="46.498" height="0.956" transform="matrix(0.812, -0.584, 0.584, 0.812, 170.692, 83.927)" fill="#3f3d56"/>
      <rect id="Rectangle_329" data-name="Rectangle 329" width="0.956" height="89.83" transform="matrix(0.834, -0.552, 0.552, 0.834, 169.395, 94.611)" fill="#3f3d56"/>
      <rect id="Rectangle_330" data-name="Rectangle 330" width="49.794" height="0.956" transform="translate(224.967 171.253) rotate(-36.344)" fill="#3f3d56"/>
      <rect id="Rectangle_331" data-name="Rectangle 331" width="0.956" height="89.847" transform="translate(214.826 58.633) rotate(-34.838)" fill="#3f3d56"/>
      <rect id="Rectangle_332" data-name="Rectangle 332" width="63.363" height="0.59" transform="translate(153.074 86.461) rotate(-42.545)" fill="#3f3d56"/>
      <rect id="Rectangle_333" data-name="Rectangle 333" width="65.082" height="0.59" transform="translate(154.857 87.056) rotate(-41.439)" fill="#3f3d56"/>
      <rect id="Rectangle_334" data-name="Rectangle 334" width="65.936" height="0.59" transform="matrix(0.768, -0.64, 0.64, 0.768, 156.049, 87.06)" fill="#3f3d56"/>
    </g>
    <g id="Group_95" data-name="Group 95" transform="translate(180.811 193.558)">
      <path id="Path_472" data-name="Path 472" d="M59.114,34.75c.061.031.12.065.182.094a1.053,1.053,0,0,1-.406,2.016c-.5.01-1,0-1.505,0a5.313,5.313,0,0,0-3.838,1.6A6.323,6.323,0,0,0,51.956,40.7a4.906,4.906,0,0,0-.339,1.751q-.006,5.822,0,11.644a4.552,4.552,0,0,0,.688,2.46,6.232,6.232,0,0,0,3.652,2.932,5.376,5.376,0,0,0,1.353.184q5.7.021,11.406.005A5.238,5.238,0,0,0,72.483,58.1a5.659,5.659,0,0,0,1.595-2.262,8.617,8.617,0,0,0,.341-1.722c.056-.54.011-1.09.015-1.636a1.044,1.044,0,0,1,1.065-1.1,1.03,1.03,0,0,1,1.042,1.091,25.739,25.739,0,0,1-.137,2.868,6.677,6.677,0,0,1-1.692,3.489,8.029,8.029,0,0,1-3.96,2.68c-.473.127-.962.2-1.443.29H56.737c-.548-.116-1.1-.2-1.641-.354a8.028,8.028,0,0,1-3.772-2.627,7.1,7.1,0,0,1-1.582-2.97c-.1-.406-.163-.822-.242-1.233V41.934c.022-.128.051-.255.066-.383a8.378,8.378,0,0,1,5.48-6.43c.553-.161,1.127-.249,1.691-.37Z" transform="translate(-49.5 -34.75)" fill="#fff"/>
      <path id="Path_473" data-name="Path 473" d="M181.951,67.744C181.294,68.4,180.7,69,180.1,69.6q-5.349,5.35-10.7,10.7a1.128,1.128,0,0,1-1.059.4,1.047,1.047,0,0,1-.648-1.663,2.57,2.57,0,0,1,.251-.271q6.105-6.106,12.213-12.21a2.845,2.845,0,0,1,.291-.226l-.042-.1c-.227-.02-.453-.056-.68-.056-1.593,0-3.186,0-4.78,0a1.817,1.817,0,0,1-.419-.032,1.056,1.056,0,0,1,.277-2.08q2.429-.007,4.859,0a7.22,7.22,0,0,1,.763.043,4.2,4.2,0,0,1,3.673,4c.026,1.769.011,3.538.008,5.308a1.041,1.041,0,0,1-1.039,1.072A1.053,1.053,0,0,1,182,73.405c-.01-.959,0-1.919-.005-2.878,0-.775,0-1.549,0-2.324C181.994,68.074,181.971,67.945,181.951,67.744Z" transform="translate(-159.175 -61.987)" fill="#fff"/>
    </g>
    <path id="Path_576" data-name="Path 576" d="M495.513,164.589c0,.544-.061.985-.136.985s-.136-.441-.136-.985.077-.288.152-.288S495.513,164.046,495.513,164.589Z" transform="translate(-254.536 132.187)" fill="#ffd037"/>
    <path id="Path_577" data-name="Path 577" d="M496.961,169.839c-.479.261-.894.418-.93.352s.322-.33.8-.591.29-.071.325,0S497.439,169.578,496.961,169.839Z" transform="translate(-255.231 127.586)" fill="#ffd037"/>
  </g>
</svg>
